<?xml version="1.0" encoding="UTF-8" standalone="no"?>
<!DOCTYPE svg PUBLIC "-//W3C//DTD SVG 1.1//EN"
 "http://www.w3.org/Graphics/SVG/1.1/DTD/svg11.dtd">
<!-- Generated by graphviz version 2.38.0 (20140413.2041)
 -->
<!-- Title: kju Pages: 1 -->
<svg width="240pt" height="548pt"
 viewBox="0.00 0.00 240.15 548.00" xmlns="http://www.w3.org/2000/svg" xmlns:xlink="http://www.w3.org/1999/xlink">
<g id="graph0" class="graph" transform="scale(1 1) rotate(0) translate(4 544)">
<title>kju</title>
<polygon fill="white" stroke="none" points="-4,4 -4,-544 236.147,-544 236.147,4 -4,4"/>
<!-- null0 -->
<g id="node1" class="node"><title>null0</title>
<ellipse fill="black" stroke="black" cx="154.8" cy="-450" rx="1.8" ry="1.8"/>
</g>
<!-- null1 -->
<g id="node2" class="node"><title>null1</title>
<ellipse fill="black" stroke="black" cx="135.8" cy="-306" rx="1.8" ry="1.8"/>
</g>
<!-- null2 -->
<g id="node3" class="node"><title>null2</title>
<ellipse fill="black" stroke="black" cx="1.8" cy="-306" rx="1.8" ry="1.8"/>
</g>
<!-- null3 -->
<g id="node4" class="node"><title>null3</title>
<ellipse fill="black" stroke="black" cx="30.8" cy="-234" rx="1.8" ry="1.8"/>
</g>
<!-- null4 -->
<g id="node5" class="node"><title>null4</title>
<ellipse fill="black" stroke="black" cx="16.8" cy="-90" rx="1.8" ry="1.8"/>
</g>
<!-- null5 -->
<g id="node6" class="node"><title>null5</title>
<ellipse fill="black" stroke="black" cx="36.8" cy="-18" rx="1.8" ry="1.8"/>
</g>
<!-- 金正日 -->
<g id="node7" class="node"><title>金正日</title>
<ellipse fill="none" stroke="black" cx="125.8" cy="-522" rx="38.1938" ry="18"/>
<text text-anchor="middle" x="125.8" y="-518.3" font-family="Times,serif" font-size="14.00">金正日</text>
</g>
<!-- 金正日&#45;&gt;null0 -->
<g id="edge2" class="edge"><title>金正日&#45;&gt;null0</title>
<path fill="none" stroke="black" d="M132.82,-504.055C138.35,-490.707 145.878,-472.536 150.534,-461.297"/>
<polygon fill="black" stroke="black" points="153.868,-462.395 154.462,-451.816 147.401,-459.715 153.868,-462.395"/>
</g>
<!-- 金英淑 -->
<g id="node8" class="node"><title>金英淑</title>
<ellipse fill="none" stroke="black" cx="96.8" cy="-450" rx="38.1938" ry="18"/>
<text text-anchor="middle" x="96.8" y="-446.3" font-family="Times,serif" font-size="14.00">金英淑</text>
</g>
<!-- 金正日&#45;&gt;金英淑 -->
<g id="edge1" class="edge"><title>金正日&#45;&gt;金英淑</title>
<path fill="none" stroke="black" d="M118.78,-504.055C115.432,-495.973 111.35,-486.121 107.618,-477.112"/>
<polygon fill="black" stroke="black" points="110.816,-475.688 103.755,-467.789 104.349,-478.367 110.816,-475.688"/>
</g>
<!-- 高英姫 -->
<g id="node9" class="node"><title>高英姫</title>
<ellipse fill="none" stroke="black" cx="49.8" cy="-378" rx="38.1938" ry="18"/>
<text text-anchor="middle" x="49.8" y="-374.3" font-family="Times,serif" font-size="14.00">高英姫</text>
</g>
<!-- 金英淑&#45;&gt;高英姫 -->
<g id="edge3" class="edge"><title>金英淑&#45;&gt;高英姫</title>
<path fill="none" stroke="black" d="M85.6617,-432.411C79.9255,-423.868 72.8156,-413.278 66.4429,-403.787"/>
<polygon fill="black" stroke="black" points="69.3386,-401.821 60.8584,-395.47 63.527,-405.723 69.3386,-401.821"/>
</g>
<!-- 金雪松 -->
<g id="node10" class="node"><title>金雪松</title>
<ellipse fill="none" stroke="black" cx="144.8" cy="-378" rx="38.1938" ry="18"/>
<text text-anchor="middle" x="144.8" y="-374.3" font-family="Times,serif" font-size="14.00">金雪松</text>
</g>
<!-- 金英淑&#45;&gt;金雪松 -->
<g id="edge4" class="edge"><title>金英淑&#45;&gt;金雪松</title>
<path fill="none" stroke="black" d="M107.933,-432.765C113.785,-424.23 121.086,-413.582 127.644,-404.019"/>
<polygon fill="black" stroke="black" points="130.625,-405.86 133.394,-395.633 124.852,-401.901 130.625,-405.86"/>
</g>
<!-- 高英姫&#45;&gt;null2 -->
<g id="edge7" class="edge"><title>高英姫&#45;&gt;null2</title>
<path fill="none" stroke="black" d="M37.9839,-360.394C30.6433,-350 21.0644,-336.293 12.8,-324 11.2064,-321.63 9.51637,-319.051 7.95157,-316.636"/>
<polygon fill="black" stroke="black" points="10.7202,-314.469 2.38488,-307.929 4.82248,-318.239 10.7202,-314.469"/>
</g>
<!-- 金正哲 -->
<g id="node12" class="node"><title>金正哲</title>
<ellipse fill="none" stroke="black" cx="59.8" cy="-306" rx="38.1938" ry="18"/>
<text text-anchor="middle" x="59.8" y="-302.3" font-family="Times,serif" font-size="14.00">金正哲</text>
</g>
<!-- 高英姫&#45;&gt;金正哲 -->
<g id="edge8" class="edge"><title>高英姫&#45;&gt;金正哲</title>
<path fill="none" stroke="black" d="M52.2719,-359.697C53.3739,-351.983 54.6982,-342.712 55.9268,-334.112"/>
<polygon fill="black" stroke="black" points="59.407,-334.499 57.3565,-324.104 52.4774,-333.509 59.407,-334.499"/>
</g>
<!-- 金雪松&#45;&gt;null1 -->
<g id="edge5" class="edge"><title>金雪松&#45;&gt;null1</title>
<path fill="none" stroke="black" d="M142.575,-359.697C140.896,-346.635 138.643,-329.11 137.206,-317.934"/>
<polygon fill="black" stroke="black" points="140.651,-317.279 135.904,-307.807 133.708,-318.172 140.651,-317.279"/>
</g>
<!-- 金春松 -->
<g id="node11" class="node"><title>金春松</title>
<ellipse fill="none" stroke="black" cx="193.8" cy="-306" rx="38.1938" ry="18"/>
<text text-anchor="middle" x="193.8" y="-302.3" font-family="Times,serif" font-size="14.00">金春松</text>
</g>
<!-- 金雪松&#45;&gt;金春松 -->
<g id="edge6" class="edge"><title>金雪松&#45;&gt;金春松</title>
<path fill="none" stroke="black" d="M156.165,-360.765C162.139,-352.23 169.592,-341.582 176.287,-332.019"/>
<polygon fill="black" stroke="black" points="179.289,-333.833 182.157,-323.633 173.555,-329.819 179.289,-333.833"/>
</g>
<!-- 金正哲&#45;&gt;null3 -->
<g id="edge9" class="edge"><title>金正哲&#45;&gt;null3</title>
<path fill="none" stroke="black" d="M52.7799,-288.055C47.2502,-274.707 39.722,-256.536 35.0658,-245.297"/>
<polygon fill="black" stroke="black" points="38.1992,-243.715 31.1382,-235.816 31.7322,-246.395 38.1992,-243.715"/>
</g>
<!-- 金正恩 -->
<g id="node13" class="node"><title>金正恩</title>
<ellipse fill="none" stroke="black" cx="88.8" cy="-234" rx="38.1938" ry="18"/>
<text text-anchor="middle" x="88.8" y="-230.3" font-family="Times,serif" font-size="14.00">金正恩</text>
</g>
<!-- 金正哲&#45;&gt;金正恩 -->
<g id="edge10" class="edge"><title>金正哲&#45;&gt;金正恩</title>
<path fill="none" stroke="black" d="M66.8201,-288.055C70.1685,-279.973 74.2497,-270.121 77.9823,-261.112"/>
<polygon fill="black" stroke="black" points="81.2506,-262.367 81.8446,-251.789 74.7836,-259.688 81.2506,-262.367"/>
</g>
<!-- 李雪主 -->
<g id="node14" class="node"><title>李雪主</title>
<ellipse fill="none" stroke="black" cx="40.8" cy="-162" rx="38.1938" ry="18"/>
<text text-anchor="middle" x="40.8" y="-158.3" font-family="Times,serif" font-size="14.00">李雪主</text>
</g>
<!-- 金正恩&#45;&gt;李雪主 -->
<g id="edge11" class="edge"><title>金正恩&#45;&gt;李雪主</title>
<path fill="none" stroke="black" d="M77.6672,-216.765C71.815,-208.23 64.5135,-197.582 57.956,-188.019"/>
<polygon fill="black" stroke="black" points="60.7476,-185.901 52.2058,-179.633 54.9745,-189.86 60.7476,-185.901"/>
</g>
<!-- 金与正 -->
<g id="node15" class="node"><title>金与正</title>
<ellipse fill="none" stroke="black" cx="135.8" cy="-162" rx="38.1938" ry="18"/>
<text text-anchor="middle" x="135.8" y="-158.3" font-family="Times,serif" font-size="14.00">金与正</text>
</g>
<!-- 金正恩&#45;&gt;金与正 -->
<g id="edge12" class="edge"><title>金正恩&#45;&gt;金与正</title>
<path fill="none" stroke="black" d="M99.9383,-216.411C105.675,-207.868 112.784,-197.278 119.157,-187.787"/>
<polygon fill="black" stroke="black" points="122.073,-189.723 124.742,-179.47 116.261,-185.821 122.073,-189.723"/>
</g>
<!-- 李雪主&#45;&gt;null4 -->
<g id="edge13" class="edge"><title>李雪主&#45;&gt;null4</title>
<path fill="none" stroke="black" d="M34.9903,-144.055C30.414,-130.707 24.1837,-112.536 20.3304,-101.297"/>
<polygon fill="black" stroke="black" points="23.634,-100.141 17.0799,-91.8164 17.0124,-102.411 23.634,-100.141"/>
</g>
<!-- 女子 -->
<g id="node16" class="node"><title>女子</title>
<ellipse fill="none" stroke="black" cx="65.8" cy="-90" rx="29.4969" ry="18"/>
<text text-anchor="middle" x="65.8" y="-86.3" font-family="Times,serif" font-size="14.00">女子</text>
</g>
<!-- 李雪主&#45;&gt;女子 -->
<g id="edge14" class="edge"><title>李雪主&#45;&gt;女子</title>
<path fill="none" stroke="black" d="M46.8518,-144.055C49.7076,-136.059 53.1819,-126.331 56.3716,-117.4"/>
<polygon fill="black" stroke="black" points="59.7366,-118.384 59.8039,-107.789 53.1444,-116.029 59.7366,-118.384"/>
</g>
<!-- 女子&#45;&gt;null5 -->
<g id="edge15" class="edge"><title>女子&#45;&gt;null5</title>
<path fill="none" stroke="black" d="M58.9274,-72.411C53.4022,-59.0743 45.8114,-40.7517 41.1102,-29.404"/>
<polygon fill="black" stroke="black" points="44.203,-27.7246 37.1421,-19.8256 37.736,-30.4038 44.203,-27.7246"/>
</g>
<!-- 金主愛 -->
<g id="node17" class="node"><title>金主愛</title>
<ellipse fill="none" stroke="black" cx="94.8" cy="-18" rx="38.1938" ry="18"/>
<text text-anchor="middle" x="94.8" y="-14.3" font-family="Times,serif" font-size="14.00">金主愛</text>
</g>
<!-- 女子&#45;&gt;金主愛 -->
<g id="edge16" class="edge"><title>女子&#45;&gt;金主愛</title>
<path fill="none" stroke="black" d="M72.6726,-72.411C76.0183,-64.3352 80.1214,-54.4312 83.8816,-45.3547"/>
<polygon fill="black" stroke="black" points="87.1813,-46.5344 87.7753,-35.9562 80.7143,-43.8552 87.1813,-46.5344"/>
</g>
</g>
</svg>
