<?xml version="1.0" encoding="UTF-8" standalone="no"?>
<!DOCTYPE svg PUBLIC "-//W3C//DTD SVG 1.1//EN"
 "http://www.w3.org/Graphics/SVG/1.1/DTD/svg11.dtd">
<!-- Generated by graphviz version 2.38.0 (20140413.2041)
 -->
<!-- Title: G Pages: 1 -->
<svg width="875pt" height="260pt"
 viewBox="0.00 0.00 875.09 260.00" xmlns="http://www.w3.org/2000/svg" xmlns:xlink="http://www.w3.org/1999/xlink">
<g id="graph0" class="graph" transform="scale(1 1) rotate(0) translate(4 256)">
<title>G</title>
<polygon fill="white" stroke="none" points="-4,4 -4,-256 871.091,-256 871.091,4 -4,4"/>
<!-- 0 -->
<g id="node1" class="node"><title>0</title>
<ellipse fill="none" stroke="black" cx="390.046" cy="-234" rx="31.6951" ry="18"/>
<text text-anchor="middle" x="390.046" y="-230.3" font-family="Times,serif" font-size="14.00">0 root</text>
</g>
<!-- 2 -->
<g id="node3" class="node"><title>2</title>
<ellipse fill="none" stroke="black" cx="390.046" cy="-162" rx="45.4919" ry="18"/>
<text text-anchor="middle" x="390.046" y="-158.3" font-family="Times,serif" font-size="14.00">2 金日成</text>
</g>
<!-- 0&#45;&gt;2 -->
<g id="edge1" class="edge"><title>0&#45;&gt;2</title>
<path fill="none" stroke="black" d="M390.046,-215.697C390.046,-207.983 390.046,-198.712 390.046,-190.112"/>
<polygon fill="black" stroke="black" points="393.546,-190.104 390.046,-180.104 386.546,-190.104 393.546,-190.104"/>
</g>
<!-- 1 -->
<g id="node2" class="node"><title>1</title>
<ellipse fill="none" stroke="black" stroke-dasharray="5,2" cx="281.046" cy="-162" rx="45.4919" ry="18"/>
<text text-anchor="middle" x="281.046" y="-158.3" font-family="Times,serif" font-size="14.00">1 金英淑</text>
</g>
<!-- 3 -->
<g id="node4" class="node"><title>3</title>
<ellipse fill="none" stroke="black" cx="336.046" cy="-90" rx="45.4919" ry="18"/>
<text text-anchor="middle" x="336.046" y="-86.3" font-family="Times,serif" font-size="14.00">3 金正日</text>
</g>
<!-- 1&#45;&gt;3 -->
<g id="edge9" class="edge"><title>1&#45;&gt;3</title>
<path fill="none" stroke="black" d="M294.08,-144.411C300.861,-135.781 309.282,-125.062 316.798,-115.497"/>
<polygon fill="black" stroke="black" points="319.679,-117.496 323.105,-107.47 314.175,-113.171 319.679,-117.496"/>
</g>
<!-- 10 -->
<g id="node11" class="node"><title>10</title>
<ellipse fill="none" stroke="black" cx="449.046" cy="-90" rx="49.2915" ry="18"/>
<text text-anchor="middle" x="449.046" y="-86.3" font-family="Times,serif" font-size="14.00">10 金敬姬</text>
</g>
<!-- 1&#45;&gt;10 -->
<g id="edge10" class="edge"><title>1&#45;&gt;10</title>
<path fill="none" stroke="black" d="M311.469,-148.324C338.602,-137.018 378.534,-120.38 408.396,-107.937"/>
<polygon fill="black" stroke="black" points="409.825,-111.134 417.709,-104.057 407.132,-104.672 409.825,-111.134"/>
</g>
<!-- 11 -->
<g id="node12" class="node"><title>11</title>
<ellipse fill="none" stroke="black" cx="222.046" cy="-90" rx="50.0912" ry="18"/>
<text text-anchor="middle" x="222.046" y="-86.3" font-family="Times,serif" font-size="14.00">11 张成泽</text>
</g>
<!-- 1&#45;&gt;11 -->
<g id="edge11" class="edge"><title>1&#45;&gt;11</title>
<path fill="none" stroke="black" d="M267.361,-144.765C260.021,-136.056 250.826,-125.147 242.641,-115.435"/>
<polygon fill="black" stroke="black" points="245.186,-113.024 236.065,-107.633 239.834,-117.535 245.186,-113.024"/>
</g>
<!-- 2&#45;&gt;3 -->
<g id="edge2" class="edge"><title>2&#45;&gt;3</title>
<path fill="none" stroke="black" d="M377.248,-144.411C370.591,-135.781 362.322,-125.062 354.943,-115.497"/>
<polygon fill="black" stroke="black" points="357.63,-113.25 348.751,-107.47 352.088,-117.526 357.63,-113.25"/>
</g>
<!-- 2&#45;&gt;10 -->
<g id="edge3" class="edge"><title>2&#45;&gt;10</title>
<path fill="none" stroke="black" d="M403.73,-144.765C411.07,-136.056 420.265,-125.147 428.45,-115.435"/>
<polygon fill="black" stroke="black" points="431.257,-117.535 435.026,-107.633 425.905,-113.024 431.257,-117.535"/>
</g>
<!-- 2&#45;&gt;11 -->
<g id="edge4" class="edge"><title>2&#45;&gt;11</title>
<path fill="none" stroke="black" d="M359.622,-148.324C332.489,-137.018 292.557,-120.38 262.695,-107.937"/>
<polygon fill="black" stroke="black" points="263.959,-104.672 253.382,-104.057 261.266,-111.134 263.959,-104.672"/>
</g>
<!-- 5 -->
<g id="node6" class="node"><title>5</title>
<ellipse fill="none" stroke="black" cx="282.046" cy="-18" rx="45.4919" ry="18"/>
<text text-anchor="middle" x="282.046" y="-14.3" font-family="Times,serif" font-size="14.00">5 金正恩</text>
</g>
<!-- 3&#45;&gt;5 -->
<g id="edge6" class="edge"><title>3&#45;&gt;5</title>
<path fill="none" stroke="black" d="M323.248,-72.411C316.591,-63.7805 308.322,-53.0622 300.943,-43.4972"/>
<polygon fill="black" stroke="black" points="303.63,-41.25 294.751,-35.4699 298.088,-45.5256 303.63,-41.25"/>
</g>
<!-- 6 -->
<g id="node7" class="node"><title>6</title>
<ellipse fill="none" stroke="black" cx="391.046" cy="-18" rx="45.4919" ry="18"/>
<text text-anchor="middle" x="391.046" y="-14.3" font-family="Times,serif" font-size="14.00">6 李雪主</text>
</g>
<!-- 3&#45;&gt;6 -->
<g id="edge7" class="edge"><title>3&#45;&gt;6</title>
<path fill="none" stroke="black" d="M349.08,-72.411C355.861,-63.7805 364.282,-53.0622 371.798,-43.4972"/>
<polygon fill="black" stroke="black" points="374.679,-45.4955 378.105,-35.4699 369.175,-41.1708 374.679,-45.4955"/>
</g>
<!-- 13 -->
<g id="node14" class="node"><title>13</title>
<ellipse fill="none" stroke="black" cx="50.0456" cy="-18" rx="50.0912" ry="18"/>
<text text-anchor="middle" x="50.0456" y="-14.3" font-family="Times,serif" font-size="14.00">13 金正哲</text>
</g>
<!-- 3&#45;&gt;13 -->
<g id="edge5" class="edge"><title>3&#45;&gt;13</title>
<path fill="none" stroke="black" d="M302.154,-77.9809C295.205,-75.8753 287.916,-73.7765 281.046,-72 205.432,-52.4468 184.844,-54.8249 109.046,-36 105.03,-35.0028 100.876,-33.9172 96.718,-32.7929"/>
<polygon fill="black" stroke="black" points="97.642,-29.4171 87.0707,-30.1228 95.7748,-36.1635 97.642,-29.4171"/>
</g>
<!-- 14 -->
<g id="node15" class="node"><title>14</title>
<ellipse fill="none" stroke="black" cx="168.046" cy="-18" rx="50.0912" ry="18"/>
<text text-anchor="middle" x="168.046" y="-14.3" font-family="Times,serif" font-size="14.00">14 金与正</text>
</g>
<!-- 3&#45;&gt;14 -->
<g id="edge8" class="edge"><title>3&#45;&gt;14</title>
<path fill="none" stroke="black" d="M305.622,-76.3235C278.489,-65.0183 238.557,-48.3799 208.695,-35.9372"/>
<polygon fill="black" stroke="black" points="209.959,-32.6722 199.382,-32.0568 207.266,-39.1338 209.959,-32.6722"/>
</g>
<!-- 4 -->
<g id="node5" class="node"><title>4</title>
<ellipse fill="none" stroke="black" stroke-dasharray="5,2" cx="108.046" cy="-90" rx="45.4919" ry="18"/>
<text text-anchor="middle" x="108.046" y="-86.3" font-family="Times,serif" font-size="14.00">4 高英姫</text>
</g>
<!-- 4&#45;&gt;5 -->
<g id="edge13" class="edge"><title>4&#45;&gt;5</title>
<path fill="none" stroke="black" d="M138.753,-76.6465C167.488,-65.0864 210.581,-47.75 242.005,-35.1084"/>
<polygon fill="black" stroke="black" points="243.382,-38.3269 251.353,-31.3475 240.769,-31.8328 243.382,-38.3269"/>
</g>
<!-- 4&#45;&gt;6 -->
<g id="edge14" class="edge"><title>4&#45;&gt;6</title>
<path fill="none" stroke="black" d="M141.936,-77.9746C148.884,-75.8695 156.175,-73.7726 163.046,-72 239.092,-52.382 259.999,-55.618 336.046,-36 339.696,-35.0583 343.464,-34.0251 347.237,-32.9477"/>
<polygon fill="black" stroke="black" points="348.552,-36.2091 357.155,-30.0254 346.574,-29.4945 348.552,-36.2091"/>
</g>
<!-- 4&#45;&gt;13 -->
<g id="edge12" class="edge"><title>4&#45;&gt;13</title>
<path fill="none" stroke="black" d="M94.5934,-72.7646C87.3776,-64.056 78.3386,-53.1467 70.2917,-43.435"/>
<polygon fill="black" stroke="black" points="72.9028,-41.1006 63.8275,-35.6334 67.5126,-45.5667 72.9028,-41.1006"/>
</g>
<!-- 4&#45;&gt;14 -->
<g id="edge15" class="edge"><title>4&#45;&gt;14</title>
<path fill="none" stroke="black" d="M121.962,-72.7646C129.426,-64.056 138.777,-53.1467 147.101,-43.435"/>
<polygon fill="black" stroke="black" points="149.938,-45.5038 153.788,-35.6334 144.623,-40.9482 149.938,-45.5038"/>
</g>
<!-- 7 -->
<!-- 8 -->
<!-- 9 -->
<!-- 12 -->
</g>
</svg>
