<?xml version="1.0" encoding="UTF-8" standalone="no"?>
<!DOCTYPE svg PUBLIC "-//W3C//DTD SVG 1.1//EN"
 "http://www.w3.org/Graphics/SVG/1.1/DTD/svg11.dtd">
<!-- Generated by graphviz version 2.38.0 (20140413.2041)
 -->
<!-- Title: G Pages: 1 -->
<svg width="1178pt" height="116pt"
 viewBox="0.00 0.00 1177.54 116.00" xmlns="http://www.w3.org/2000/svg" xmlns:xlink="http://www.w3.org/1999/xlink">
<g id="graph0" class="graph" transform="scale(1 1) rotate(0) translate(4 112)">
<title>G</title>
<polygon fill="white" stroke="none" points="-4,4 -4,-112 1173.54,-112 1173.54,4 -4,4"/>
<!-- 0 -->
<!-- 1 -->
<g id="node2" class="node"><title>1</title>
<ellipse fill="none" stroke="red" cx="177.995" cy="-90" rx="51.9908" ry="18"/>
<text text-anchor="middle" x="177.995" y="-86.3" font-family="Times,serif" font-size="14.00">1 金英淑 3</text>
</g>
<!-- 3 -->
<g id="node4" class="node"><title>3</title>
<ellipse fill="none" stroke="blue" cx="51.9954" cy="-18" rx="51.9908" ry="18"/>
<text text-anchor="middle" x="51.9954" y="-14.3" font-family="Times,serif" font-size="14.00">3 金正日 1</text>
</g>
<!-- 1&#45;&gt;3 -->
<g id="edge1" class="edge"><title>1&#45;&gt;3</title>
<path fill="none" stroke="black" d="M151.582,-74.3257C132.933,-63.9655 107.74,-49.9691 87.359,-38.6465"/>
<polygon fill="black" stroke="black" points="88.8157,-35.4519 78.3743,-33.655 85.4162,-41.571 88.8157,-35.4519"/>
</g>
<!-- 10 -->
<g id="node11" class="node"><title>10</title>
<ellipse fill="none" stroke="red" cx="177.995" cy="-18" rx="55.7903" ry="18"/>
<text text-anchor="middle" x="177.995" y="-14.3" font-family="Times,serif" font-size="14.00">10 金敬姬 1</text>
</g>
<!-- 1&#45;&gt;10 -->
<g id="edge2" class="edge"><title>1&#45;&gt;10</title>
<path fill="none" stroke="black" d="M177.995,-71.6966C177.995,-63.9827 177.995,-54.7125 177.995,-46.1124"/>
<polygon fill="black" stroke="black" points="181.495,-46.1043 177.995,-36.1043 174.495,-46.1044 181.495,-46.1043"/>
</g>
<!-- 11 -->
<g id="node12" class="node"><title>11</title>
<ellipse fill="none" stroke="blue" cx="307.995" cy="-18" rx="56.59" ry="18"/>
<text text-anchor="middle" x="307.995" y="-14.3" font-family="Times,serif" font-size="14.00">11 张成泽 1</text>
</g>
<!-- 1&#45;&gt;11 -->
<g id="edge3" class="edge"><title>1&#45;&gt;11</title>
<path fill="none" stroke="black" d="M204.931,-74.496C224.107,-64.1704 250.108,-50.1702 271.196,-38.8152"/>
<polygon fill="black" stroke="black" points="273.051,-41.7911 280.197,-33.9684 269.733,-35.6278 273.051,-41.7911"/>
</g>
<!-- 2 -->
<!-- 4 -->
<g id="node5" class="node"><title>4</title>
<ellipse fill="none" stroke="red" cx="619.995" cy="-90" rx="51.9908" ry="18"/>
<text text-anchor="middle" x="619.995" y="-86.3" font-family="Times,serif" font-size="14.00">4 高英姫 4</text>
</g>
<!-- 5 -->
<g id="node6" class="node"><title>5</title>
<ellipse fill="none" stroke="blue" cx="434.995" cy="-18" rx="51.9908" ry="18"/>
<text text-anchor="middle" x="434.995" y="-14.3" font-family="Times,serif" font-size="14.00">5 金正恩 1</text>
</g>
<!-- 4&#45;&gt;5 -->
<g id="edge5" class="edge"><title>4&#45;&gt;5</title>
<path fill="none" stroke="black" d="M586.064,-76.1609C555.683,-64.6654 510.982,-47.7517 478.084,-35.3039"/>
<polygon fill="black" stroke="black" points="479.304,-32.0232 468.712,-31.7577 476.826,-38.5702 479.304,-32.0232"/>
</g>
<!-- 6 -->
<g id="node7" class="node"><title>6</title>
<ellipse fill="none" stroke="red" cx="556.995" cy="-18" rx="51.9908" ry="18"/>
<text text-anchor="middle" x="556.995" y="-14.3" font-family="Times,serif" font-size="14.00">6 李雪主 1</text>
</g>
<!-- 4&#45;&gt;6 -->
<g id="edge6" class="edge"><title>4&#45;&gt;6</title>
<path fill="none" stroke="black" d="M605.065,-72.411C597.141,-63.6062 587.261,-52.6282 578.522,-42.9189"/>
<polygon fill="black" stroke="black" points="581.11,-40.5615 571.818,-35.4699 575.906,-45.2443 581.11,-40.5615"/>
</g>
<!-- 13 -->
<g id="node14" class="node"><title>13</title>
<ellipse fill="none" stroke="blue" cx="683.995" cy="-18" rx="56.59" ry="18"/>
<text text-anchor="middle" x="683.995" y="-14.3" font-family="Times,serif" font-size="14.00">13 金正哲 1</text>
</g>
<!-- 4&#45;&gt;13 -->
<g id="edge4" class="edge"><title>4&#45;&gt;13</title>
<path fill="none" stroke="black" d="M635.162,-72.411C643.213,-63.6062 653.25,-52.6282 662.127,-42.9189"/>
<polygon fill="black" stroke="black" points="664.773,-45.212 668.937,-35.4699 659.606,-40.4886 664.773,-45.212"/>
</g>
<!-- 14 -->
<g id="node15" class="node"><title>14</title>
<ellipse fill="none" stroke="red" cx="814.995" cy="-18" rx="56.59" ry="18"/>
<text text-anchor="middle" x="814.995" y="-14.3" font-family="Times,serif" font-size="14.00">14 金与正 1</text>
</g>
<!-- 4&#45;&gt;14 -->
<g id="edge7" class="edge"><title>4&#45;&gt;14</title>
<path fill="none" stroke="black" d="M654.857,-76.4854C686.8,-65.0187 734.298,-47.9682 769.274,-35.4129"/>
<polygon fill="black" stroke="black" points="770.554,-38.6721 778.783,-31.9992 768.189,-32.0837 770.554,-38.6721"/>
</g>
<!-- 7 -->
<!-- 8 -->
<!-- 9 -->
<!-- 12 -->
</g>
</svg>
