<?xml version="1.0" encoding="UTF-8" standalone="no"?>
<!DOCTYPE svg PUBLIC "-//W3C//DTD SVG 1.1//EN"
 "http://www.w3.org/Graphics/SVG/1.1/DTD/svg11.dtd">
<!-- Generated by graphviz version 2.38.0 (20140413.2041)
 -->
<!-- Title: G Pages: 1 -->
<svg width="1151pt" height="260pt"
 viewBox="0.00 0.00 1150.54 260.00" xmlns="http://www.w3.org/2000/svg" xmlns:xlink="http://www.w3.org/1999/xlink">
<g id="graph0" class="graph" transform="scale(1 1) rotate(0) translate(4 256)">
<title>G</title>
<polygon fill="white" stroke="none" points="-4,4 -4,-256 1146.54,-256 1146.54,4 -4,4"/>
<!-- 0 -->
<g id="node1" class="node"><title>0</title>
<ellipse fill="none" stroke="red" cx="362.995" cy="-234" rx="38.1938" ry="18"/>
<text text-anchor="middle" x="362.995" y="-230.3" font-family="Times,serif" font-size="14.00">0 root 1</text>
</g>
<!-- 2 -->
<g id="node3" class="node"><title>2</title>
<ellipse fill="none" stroke="blue" cx="362.995" cy="-162" rx="51.9908" ry="18"/>
<text text-anchor="middle" x="362.995" y="-158.3" font-family="Times,serif" font-size="14.00">2 金日成 4</text>
</g>
<!-- 0&#45;&gt;2 -->
<g id="edge1" class="edge"><title>0&#45;&gt;2</title>
<path fill="none" stroke="black" d="M362.995,-215.697C362.995,-207.983 362.995,-198.712 362.995,-190.112"/>
<polygon fill="black" stroke="black" points="366.495,-190.104 362.995,-180.104 359.495,-190.104 366.495,-190.104"/>
</g>
<!-- 1 -->
<!-- 3 -->
<g id="node4" class="node"><title>3</title>
<ellipse fill="none" stroke="blue" cx="236.995" cy="-90" rx="51.9908" ry="18"/>
<text text-anchor="middle" x="236.995" y="-86.3" font-family="Times,serif" font-size="14.00">3 金正日 5</text>
</g>
<!-- 2&#45;&gt;3 -->
<g id="edge2" class="edge"><title>2&#45;&gt;3</title>
<path fill="none" stroke="black" d="M336.582,-146.326C317.933,-135.965 292.74,-121.969 272.359,-110.646"/>
<polygon fill="black" stroke="black" points="273.816,-107.452 263.374,-105.655 270.416,-113.571 273.816,-107.452"/>
</g>
<!-- 10 -->
<g id="node11" class="node"><title>10</title>
<ellipse fill="none" stroke="red" cx="362.995" cy="-90" rx="55.7903" ry="18"/>
<text text-anchor="middle" x="362.995" y="-86.3" font-family="Times,serif" font-size="14.00">10 金敬姬 1</text>
</g>
<!-- 2&#45;&gt;10 -->
<g id="edge3" class="edge"><title>2&#45;&gt;10</title>
<path fill="none" stroke="black" d="M362.995,-143.697C362.995,-135.983 362.995,-126.712 362.995,-118.112"/>
<polygon fill="black" stroke="black" points="366.495,-118.104 362.995,-108.104 359.495,-118.104 366.495,-118.104"/>
</g>
<!-- 11 -->
<g id="node12" class="node"><title>11</title>
<ellipse fill="none" stroke="blue" cx="492.995" cy="-90" rx="56.59" ry="18"/>
<text text-anchor="middle" x="492.995" y="-86.3" font-family="Times,serif" font-size="14.00">11 张成泽 1</text>
</g>
<!-- 2&#45;&gt;11 -->
<g id="edge4" class="edge"><title>2&#45;&gt;11</title>
<path fill="none" stroke="black" d="M389.931,-146.496C409.107,-136.17 435.108,-122.17 456.196,-110.815"/>
<polygon fill="black" stroke="black" points="458.051,-113.791 465.197,-105.968 454.733,-107.628 458.051,-113.791"/>
</g>
<!-- 5 -->
<g id="node6" class="node"><title>5</title>
<ellipse fill="none" stroke="blue" cx="51.9954" cy="-18" rx="51.9908" ry="18"/>
<text text-anchor="middle" x="51.9954" y="-14.3" font-family="Times,serif" font-size="14.00">5 金正恩 1</text>
</g>
<!-- 3&#45;&gt;5 -->
<g id="edge6" class="edge"><title>3&#45;&gt;5</title>
<path fill="none" stroke="black" d="M203.064,-76.1609C172.683,-64.6654 127.982,-47.7517 95.0843,-35.3039"/>
<polygon fill="black" stroke="black" points="96.3036,-32.0232 85.7121,-31.7577 93.8263,-38.5702 96.3036,-32.0232"/>
</g>
<!-- 6 -->
<g id="node7" class="node"><title>6</title>
<ellipse fill="none" stroke="red" cx="173.995" cy="-18" rx="51.9908" ry="18"/>
<text text-anchor="middle" x="173.995" y="-14.3" font-family="Times,serif" font-size="14.00">6 李雪主 1</text>
</g>
<!-- 3&#45;&gt;6 -->
<g id="edge7" class="edge"><title>3&#45;&gt;6</title>
<path fill="none" stroke="black" d="M222.065,-72.411C214.141,-63.6062 204.261,-52.6282 195.522,-42.9189"/>
<polygon fill="black" stroke="black" points="198.11,-40.5615 188.818,-35.4699 192.906,-45.2443 198.11,-40.5615"/>
</g>
<!-- 13 -->
<g id="node14" class="node"><title>13</title>
<ellipse fill="none" stroke="blue" cx="300.995" cy="-18" rx="56.59" ry="18"/>
<text text-anchor="middle" x="300.995" y="-14.3" font-family="Times,serif" font-size="14.00">13 金正哲 1</text>
</g>
<!-- 3&#45;&gt;13 -->
<g id="edge5" class="edge"><title>3&#45;&gt;13</title>
<path fill="none" stroke="black" d="M252.162,-72.411C260.213,-63.6062 270.25,-52.6282 279.127,-42.9189"/>
<polygon fill="black" stroke="black" points="281.773,-45.212 285.937,-35.4699 276.606,-40.4886 281.773,-45.212"/>
</g>
<!-- 14 -->
<g id="node15" class="node"><title>14</title>
<ellipse fill="none" stroke="red" cx="431.995" cy="-18" rx="56.59" ry="18"/>
<text text-anchor="middle" x="431.995" y="-14.3" font-family="Times,serif" font-size="14.00">14 金与正 1</text>
</g>
<!-- 3&#45;&gt;14 -->
<g id="edge8" class="edge"><title>3&#45;&gt;14</title>
<path fill="none" stroke="black" d="M271.857,-76.4854C303.8,-65.0187 351.298,-47.9682 386.274,-35.4129"/>
<polygon fill="black" stroke="black" points="387.554,-38.6721 395.783,-31.9992 385.189,-32.0837 387.554,-38.6721"/>
</g>
<!-- 4 -->
<!-- 7 -->
<!-- 8 -->
<!-- 9 -->
<!-- 12 -->
</g>
</svg>
