<?xml version="1.0" encoding="UTF-8" standalone="no"?>
<!DOCTYPE svg PUBLIC "-//W3C//DTD SVG 1.1//EN"
 "http://www.w3.org/Graphics/SVG/1.1/DTD/svg11.dtd">
<!-- Generated by graphviz version 2.38.0 (20140413.2041)
 -->
<!-- Title: G Pages: 1 -->
<svg width="755pt" height="116pt"
 viewBox="0.00 0.00 755.34 116.00" xmlns="http://www.w3.org/2000/svg" xmlns:xlink="http://www.w3.org/1999/xlink">
<g id="graph0" class="graph" transform="scale(1 1) rotate(0) translate(4 112)">
<title>G</title>
<polygon fill="white" stroke="none" points="-4,4 -4,-112 751.342,-112 751.342,4 -4,4"/>
<!-- 0 -->
<!-- 1 -->
<g id="node2" class="node"><title>1</title>
<ellipse fill="none" stroke="red" cx="146.347" cy="-18" rx="51.9908" ry="18"/>
<text text-anchor="middle" x="146.347" y="-14.3" font-family="Times,serif" font-size="14.00">1 金英淑 1</text>
</g>
<!-- 2 -->
<g id="node3" class="node"><title>2</title>
<ellipse fill="none" stroke="blue" cx="146.347" cy="-90" rx="51.9908" ry="18"/>
<text text-anchor="middle" x="146.347" y="-86.3" font-family="Times,serif" font-size="14.00">2 金日成 1</text>
</g>
<!-- 2&#45;&#45;1 -->
<g id="edge1" class="edge"><title>2&#45;&#45;1</title>
<path fill="none" stroke="black" d="M146.347,-71.6966C146.347,-60.8463 146.347,-46.9167 146.347,-36.1043"/>
</g>
<!-- 3 -->
<g id="node4" class="node"><title>3</title>
<ellipse fill="none" stroke="blue" cx="329.347" cy="-90" rx="51.9908" ry="18"/>
<text text-anchor="middle" x="329.347" y="-86.3" font-family="Times,serif" font-size="14.00">3 金正日 2</text>
</g>
<!-- 4 -->
<g id="node5" class="node"><title>4</title>
<ellipse fill="none" stroke="red" cx="298.347" cy="-18" rx="51.9908" ry="18"/>
<text text-anchor="middle" x="298.347" y="-14.3" font-family="Times,serif" font-size="14.00">4 高英姫 1</text>
</g>
<!-- 3&#45;&#45;4 -->
<g id="edge2" class="edge"><title>3&#45;&#45;4</title>
<path fill="none" stroke="black" d="M321.842,-72.055C317.04,-61.2111 310.828,-47.183 305.997,-36.2753"/>
</g>
<!-- 8 -->
<g id="node9" class="node"><title>8</title>
<ellipse fill="none" stroke="red" cx="420.347" cy="-18" rx="51.9908" ry="18"/>
<text text-anchor="middle" x="420.347" y="-14.3" font-family="Times,serif" font-size="14.00">8 成蕙琳 1</text>
</g>
<!-- 3&#45;&#45;8 -->
<g id="edge3" class="edge"><title>3&#45;&#45;8</title>
<path fill="none" stroke="black" d="M349.996,-73.1159C364.993,-61.5793 385.187,-46.0456 400.092,-34.5801"/>
</g>
<!-- 5 -->
<!-- 6 -->
<!-- 7 -->
</g>
</svg>
