<?xml version="1.0" encoding="UTF-8" standalone="no"?>
<!DOCTYPE svg PUBLIC "-//W3C//DTD SVG 1.1//EN"
 "http://www.w3.org/Graphics/SVG/1.1/DTD/svg11.dtd">
<!-- Generated by graphviz version 2.38.0 (20140413.2041)
 -->
<!-- Title: G Pages: 1 -->
<svg width="599pt" height="260pt"
 viewBox="0.00 0.00 598.54 260.00" xmlns="http://www.w3.org/2000/svg" xmlns:xlink="http://www.w3.org/1999/xlink">
<g id="graph0" class="graph" transform="scale(1 1) rotate(0) translate(4 256)">
<title>G</title>
<polygon fill="white" stroke="none" points="-4,4 -4,-256 594.542,-256 594.542,4 -4,4"/>
<!-- 0 -->
<g id="node1" class="node"><title>0</title>
<ellipse fill="none" stroke="black" cx="331.496" cy="-234" rx="31.6951" ry="18"/>
<text text-anchor="middle" x="331.496" y="-230.3" font-family="Times,serif" font-size="14.00">0 root</text>
</g>
<!-- 2 -->
<g id="node3" class="node"><title>2</title>
<ellipse fill="none" stroke="black" cx="331.496" cy="-162" rx="45.4919" ry="18"/>
<text text-anchor="middle" x="331.496" y="-158.3" font-family="Times,serif" font-size="14.00">2 金日成</text>
</g>
<!-- 0&#45;&gt;2 -->
<g id="edge1" class="edge"><title>0&#45;&gt;2</title>
<path fill="none" stroke="black" d="M331.496,-215.697C331.496,-207.983 331.496,-198.712 331.496,-190.112"/>
<polygon fill="black" stroke="black" points="334.996,-190.104 331.496,-180.104 327.996,-190.104 334.996,-190.104"/>
</g>
<!-- 1 -->
<g id="node2" class="node"><title>1</title>
<ellipse fill="none" stroke="black" stroke-dasharray="5,2" cx="222.496" cy="-162" rx="45.4919" ry="18"/>
<text text-anchor="middle" x="222.496" y="-158.3" font-family="Times,serif" font-size="14.00">1 金英淑</text>
</g>
<!-- 3 -->
<g id="node4" class="node"><title>3</title>
<ellipse fill="none" stroke="black" cx="391.496" cy="-90" rx="45.4919" ry="18"/>
<text text-anchor="middle" x="391.496" y="-86.3" font-family="Times,serif" font-size="14.00">3 金正日</text>
</g>
<!-- 1&#45;&gt;3 -->
<g id="edge10" class="edge"><title>1&#45;&gt;3</title>
<path fill="none" stroke="black" d="M252.71,-148.485C280.381,-137.024 321.522,-119.983 351.83,-107.43"/>
<polygon fill="black" stroke="black" points="353.36,-110.584 361.259,-103.524 350.681,-104.117 353.36,-110.584"/>
</g>
<!-- 10 -->
<g id="node11" class="node"><title>10</title>
<ellipse fill="none" stroke="black" cx="160.496" cy="-90" rx="49.2915" ry="18"/>
<text text-anchor="middle" x="160.496" y="-86.3" font-family="Times,serif" font-size="14.00">10 金敬姬</text>
</g>
<!-- 1&#45;&gt;10 -->
<g id="edge11" class="edge"><title>1&#45;&gt;10</title>
<path fill="none" stroke="black" d="M208.116,-144.765C200.326,-135.969 190.547,-124.928 181.881,-115.144"/>
<polygon fill="black" stroke="black" points="184.479,-112.799 175.228,-107.633 179.239,-117.44 184.479,-112.799"/>
</g>
<!-- 11 -->
<g id="node12" class="node"><title>11</title>
<ellipse fill="none" stroke="black" cx="277.496" cy="-90" rx="50.0912" ry="18"/>
<text text-anchor="middle" x="277.496" y="-86.3" font-family="Times,serif" font-size="14.00">11 张成泽</text>
</g>
<!-- 1&#45;&gt;11 -->
<g id="edge12" class="edge"><title>1&#45;&gt;11</title>
<path fill="none" stroke="black" d="M235.53,-144.411C242.311,-135.781 250.733,-125.062 258.248,-115.497"/>
<polygon fill="black" stroke="black" points="261.129,-117.496 264.555,-107.47 255.625,-113.171 261.129,-117.496"/>
</g>
<!-- 2&#45;&gt;3 -->
<g id="edge2" class="edge"><title>2&#45;&gt;3</title>
<path fill="none" stroke="black" d="M345.412,-144.765C352.985,-135.93 362.499,-124.83 370.913,-115.014"/>
<polygon fill="black" stroke="black" points="373.805,-117.018 377.655,-107.147 368.49,-112.462 373.805,-117.018"/>
</g>
<!-- 2&#45;&gt;10 -->
<g id="edge3" class="edge"><title>2&#45;&gt;10</title>
<path fill="none" stroke="black" d="M300.925,-148.485C273.186,-137.13 232.07,-120.299 201.488,-107.78"/>
<polygon fill="black" stroke="black" points="202.54,-104.429 191.96,-103.88 199.888,-110.907 202.54,-104.429"/>
</g>
<!-- 2&#45;&gt;11 -->
<g id="edge4" class="edge"><title>2&#45;&gt;11</title>
<path fill="none" stroke="black" d="M318.699,-144.411C312.041,-135.781 303.772,-125.062 296.394,-115.497"/>
<polygon fill="black" stroke="black" points="299.081,-113.25 290.201,-107.47 293.538,-117.526 299.081,-113.25"/>
</g>
<!-- 5 -->
<g id="node6" class="node"><title>5</title>
<ellipse fill="none" stroke="black" cx="391.496" cy="-18" rx="45.4919" ry="18"/>
<text text-anchor="middle" x="391.496" y="-14.3" font-family="Times,serif" font-size="14.00">5 金正恩</text>
</g>
<!-- 3&#45;&gt;5 -->
<g id="edge6" class="edge"><title>3&#45;&gt;5</title>
<path fill="none" stroke="black" d="M391.496,-71.6966C391.496,-63.9827 391.496,-54.7125 391.496,-46.1124"/>
<polygon fill="black" stroke="black" points="394.996,-46.1043 391.496,-36.1043 387.996,-46.1044 394.996,-46.1043"/>
</g>
<!-- 6 -->
<g id="node7" class="node"><title>6</title>
<ellipse fill="none" stroke="black" cx="45.496" cy="-18" rx="45.4919" ry="18"/>
<text text-anchor="middle" x="45.496" y="-14.3" font-family="Times,serif" font-size="14.00">6 李雪主</text>
</g>
<!-- 3&#45;&gt;6 -->
<g id="edge7" class="edge"><title>3&#45;&gt;6</title>
<path fill="none" stroke="black" d="M357.97,-77.7722C350.929,-75.6584 343.51,-73.6095 336.496,-72 233.082,-48.2684 203.91,-59.7316 100.496,-36 96.6604,-35.1198 92.7036,-34.1082 88.7535,-33.0264"/>
<polygon fill="black" stroke="black" points="89.5995,-29.6279 79.0217,-30.2278 87.6649,-36.3553 89.5995,-29.6279"/>
</g>
<!-- 9 -->
<g id="node10" class="node"><title>9</title>
<ellipse fill="none" stroke="black" cx="500.496" cy="-18" rx="45.4919" ry="18"/>
<text text-anchor="middle" x="500.496" y="-14.3" font-family="Times,serif" font-size="14.00">9 金正男</text>
</g>
<!-- 3&#45;&gt;9 -->
<g id="edge9" class="edge"><title>3&#45;&gt;9</title>
<path fill="none" stroke="black" d="M414.346,-74.3257C430.188,-64.1522 451.489,-50.4723 468.947,-39.2611"/>
<polygon fill="black" stroke="black" points="471.153,-42.0037 477.676,-33.655 467.37,-36.1137 471.153,-42.0037"/>
</g>
<!-- 13 -->
<g id="node14" class="node"><title>13</title>
<ellipse fill="none" stroke="black" cx="159.496" cy="-18" rx="50.0912" ry="18"/>
<text text-anchor="middle" x="159.496" y="-14.3" font-family="Times,serif" font-size="14.00">13 金正哲</text>
</g>
<!-- 3&#45;&gt;13 -->
<g id="edge5" class="edge"><title>3&#45;&gt;13</title>
<path fill="none" stroke="black" d="M356.89,-78.2525C350.13,-76.1676 343.093,-74.0073 336.496,-72 292.456,-58.6006 242.17,-43.5689 206.48,-32.9457"/>
<polygon fill="black" stroke="black" points="207.401,-29.5681 196.818,-30.0713 205.405,-36.2775 207.401,-29.5681"/>
</g>
<!-- 14 -->
<g id="node15" class="node"><title>14</title>
<ellipse fill="none" stroke="black" cx="277.496" cy="-18" rx="50.0912" ry="18"/>
<text text-anchor="middle" x="277.496" y="-14.3" font-family="Times,serif" font-size="14.00">14 金与正</text>
</g>
<!-- 3&#45;&gt;14 -->
<g id="edge8" class="edge"><title>3&#45;&gt;14</title>
<path fill="none" stroke="black" d="M367.875,-74.496C351.285,-64.3093 328.871,-50.5462 310.515,-39.2749"/>
<polygon fill="black" stroke="black" points="312.226,-36.2185 301.873,-33.9684 308.563,-42.1837 312.226,-36.2185"/>
</g>
<!-- 4 -->
<g id="node5" class="node"><title>4</title>
<ellipse fill="none" stroke="black" stroke-dasharray="5,2" cx="47.496" cy="-90" rx="45.4919" ry="18"/>
<text text-anchor="middle" x="47.496" y="-86.3" font-family="Times,serif" font-size="14.00">4 高英姫</text>
</g>
<!-- 4&#45;&gt;5 -->
<g id="edge14" class="edge"><title>4&#45;&gt;5</title>
<path fill="none" stroke="black" d="M81.0233,-77.7791C88.0648,-75.6648 95.4834,-73.614 102.496,-72 205.039,-48.3996 233.953,-59.6004 336.496,-36 340.331,-35.1174 344.287,-34.1041 348.237,-33.0212"/>
<polygon fill="black" stroke="black" points="349.327,-36.3498 357.969,-30.2209 347.391,-29.6228 349.327,-36.3498"/>
</g>
<!-- 4&#45;&gt;6 -->
<g id="edge15" class="edge"><title>4&#45;&gt;6</title>
<path fill="none" stroke="black" d="M47.0016,-71.6966C46.7812,-63.9827 46.5163,-54.7125 46.2706,-46.1124"/>
<polygon fill="black" stroke="black" points="49.7689,-46.0003 45.9847,-36.1043 42.7718,-46.2002 49.7689,-46.0003"/>
</g>
<!-- 4&#45;&gt;13 -->
<g id="edge13" class="edge"><title>4&#45;&gt;13</title>
<path fill="none" stroke="black" d="M70.7024,-74.496C87.0011,-64.3093 109.022,-50.5462 127.056,-39.2749"/>
<polygon fill="black" stroke="black" points="128.921,-42.2365 135.546,-33.9684 125.211,-36.3005 128.921,-42.2365"/>
</g>
<!-- 4&#45;&gt;14 -->
<g id="edge16" class="edge"><title>4&#45;&gt;14</title>
<path fill="none" stroke="black" d="M82.1072,-78.2691C88.8665,-76.1827 95.9016,-74.0177 102.496,-72 145.734,-58.7703 195.034,-43.8547 230.264,-33.225"/>
<polygon fill="black" stroke="black" points="231.703,-36.4468 240.266,-30.2082 229.682,-29.745 231.703,-36.4468"/>
</g>
<!-- 7 -->
<!-- 8 -->
<g id="node9" class="node"><title>8</title>
<ellipse fill="none" stroke="black" stroke-dasharray="5,2" cx="500.496" cy="-90" rx="45.4919" ry="18"/>
<text text-anchor="middle" x="500.496" y="-86.3" font-family="Times,serif" font-size="14.00">8 成蕙琳</text>
</g>
<!-- 8&#45;&gt;9 -->
<g id="edge17" class="edge"><title>8&#45;&gt;9</title>
<path fill="none" stroke="black" d="M500.496,-71.6966C500.496,-63.9827 500.496,-54.7125 500.496,-46.1124"/>
<polygon fill="black" stroke="black" points="503.996,-46.1043 500.496,-36.1043 496.996,-46.1044 503.996,-46.1043"/>
</g>
<!-- 12 -->
</g>
</svg>
