<?xml version="1.0" encoding="UTF-8" standalone="no"?>
<!DOCTYPE svg PUBLIC "-//W3C//DTD SVG 1.1//EN"
 "http://www.w3.org/Graphics/SVG/1.1/DTD/svg11.dtd">
<!-- Generated by graphviz version 2.38.0 (20140413.2041)
 -->
<!-- Title: G Pages: 1 -->
<svg width="1134pt" height="116pt"
 viewBox="0.00 0.00 1133.54 116.00" xmlns="http://www.w3.org/2000/svg" xmlns:xlink="http://www.w3.org/1999/xlink">
<g id="graph0" class="graph" transform="scale(1 1) rotate(0) translate(4 112)">
<title>G</title>
<polygon fill="white" stroke="none" points="-4,4 -4,-112 1129.54,-112 1129.54,4 -4,4"/>
<!-- 0 -->
<!-- 1 -->
<g id="node2" class="node"><title>1</title>
<ellipse fill="none" stroke="red" cx="177.995" cy="-90" rx="51.9908" ry="18"/>
<text text-anchor="middle" x="177.995" y="-86.3" font-family="Times,serif" font-size="14.00">1 金英淑 3</text>
</g>
<!-- 3 -->
<g id="node4" class="node"><title>3</title>
<ellipse fill="none" stroke="blue" cx="51.9954" cy="-18" rx="51.9908" ry="18"/>
<text text-anchor="middle" x="51.9954" y="-14.3" font-family="Times,serif" font-size="14.00">3 金正日 1</text>
</g>
<!-- 1&#45;&gt;3 -->
<g id="edge1" class="edge"><title>1&#45;&gt;3</title>
<path fill="none" stroke="black" d="M151.582,-74.3257C132.933,-63.9655 107.74,-49.9691 87.359,-38.6465"/>
<polygon fill="black" stroke="black" points="88.8157,-35.4519 78.3743,-33.655 85.4162,-41.571 88.8157,-35.4519"/>
</g>
<!-- 10 -->
<g id="node11" class="node"><title>10</title>
<ellipse fill="none" stroke="red" cx="177.995" cy="-18" rx="55.7903" ry="18"/>
<text text-anchor="middle" x="177.995" y="-14.3" font-family="Times,serif" font-size="14.00">10 金敬姬 1</text>
</g>
<!-- 1&#45;&gt;10 -->
<g id="edge2" class="edge"><title>1&#45;&gt;10</title>
<path fill="none" stroke="black" d="M177.995,-71.6966C177.995,-63.9827 177.995,-54.7125 177.995,-46.1124"/>
<polygon fill="black" stroke="black" points="181.495,-46.1043 177.995,-36.1043 174.495,-46.1044 181.495,-46.1043"/>
</g>
<!-- 11 -->
<g id="node12" class="node"><title>11</title>
<ellipse fill="none" stroke="blue" cx="307.995" cy="-18" rx="56.59" ry="18"/>
<text text-anchor="middle" x="307.995" y="-14.3" font-family="Times,serif" font-size="14.00">11 张成泽 1</text>
</g>
<!-- 1&#45;&gt;11 -->
<g id="edge3" class="edge"><title>1&#45;&gt;11</title>
<path fill="none" stroke="black" d="M204.931,-74.496C224.107,-64.1704 250.108,-50.1702 271.196,-38.8152"/>
<polygon fill="black" stroke="black" points="273.051,-41.7911 280.197,-33.9684 269.733,-35.6278 273.051,-41.7911"/>
</g>
<!-- 2 -->
<!-- 4 -->
<g id="node5" class="node"><title>4</title>
<ellipse fill="none" stroke="red" cx="591.995" cy="-90" rx="51.9908" ry="18"/>
<text text-anchor="middle" x="591.995" y="-86.3" font-family="Times,serif" font-size="14.00">4 高英姫 4</text>
</g>
<!-- 5 -->
<g id="node6" class="node"><title>5</title>
<ellipse fill="none" stroke="blue" cx="434.995" cy="-18" rx="51.9908" ry="18"/>
<text text-anchor="middle" x="434.995" y="-14.3" font-family="Times,serif" font-size="14.00">5 金正恩 1</text>
</g>
<!-- 4&#45;&gt;5 -->
<g id="edge5" class="edge"><title>4&#45;&gt;5</title>
<path fill="none" stroke="black" d="M561.352,-75.3371C536.605,-64.3038 501.599,-48.696 474.706,-36.7054"/>
<polygon fill="black" stroke="black" points="476.121,-33.504 465.562,-32.6284 473.27,-39.8973 476.121,-33.504"/>
</g>
<!-- 6 -->
<g id="node7" class="node"><title>6</title>
<ellipse fill="none" stroke="red" cx="556.995" cy="-18" rx="51.9908" ry="18"/>
<text text-anchor="middle" x="556.995" y="-14.3" font-family="Times,serif" font-size="14.00">6 李雪主 1</text>
</g>
<!-- 4&#45;&gt;6 -->
<g id="edge6" class="edge"><title>4&#45;&gt;6</title>
<path fill="none" stroke="black" d="M583.523,-72.055C579.439,-63.8866 574.451,-53.9116 569.908,-44.8244"/>
<polygon fill="black" stroke="black" points="572.993,-43.168 565.39,-35.789 566.732,-46.2985 572.993,-43.168"/>
</g>
<!-- 13 -->
<g id="node14" class="node"><title>13</title>
<ellipse fill="none" stroke="blue" cx="683.995" cy="-18" rx="56.59" ry="18"/>
<text text-anchor="middle" x="683.995" y="-14.3" font-family="Times,serif" font-size="14.00">13 金正哲 1</text>
</g>
<!-- 4&#45;&gt;13 -->
<g id="edge4" class="edge"><title>4&#45;&gt;13</title>
<path fill="none" stroke="black" d="M612.872,-73.1159C625.34,-63.629 641.361,-51.4391 655.04,-41.0312"/>
<polygon fill="black" stroke="black" points="657.363,-43.6619 663.202,-34.8212 653.124,-38.0911 657.363,-43.6619"/>
</g>
<!-- 14 -->
<g id="node15" class="node"><title>14</title>
<ellipse fill="none" stroke="red" cx="814.995" cy="-18" rx="56.59" ry="18"/>
<text text-anchor="middle" x="814.995" y="-14.3" font-family="Times,serif" font-size="14.00">14 金与正 1</text>
</g>
<!-- 4&#45;&gt;14 -->
<g id="edge7" class="edge"><title>4&#45;&gt;14</title>
<path fill="none" stroke="black" d="M629.07,-77.3623C666.792,-65.5212 725.431,-47.1145 766.75,-34.1442"/>
<polygon fill="black" stroke="black" points="767.842,-37.4701 776.334,-31.1358 765.745,-30.7914 767.842,-37.4701"/>
</g>
<!-- 7 -->
<!-- 8 -->
<g id="node9" class="node"><title>8</title>
<ellipse fill="none" stroke="red" cx="941.995" cy="-90" rx="51.9908" ry="18"/>
<text text-anchor="middle" x="941.995" y="-86.3" font-family="Times,serif" font-size="14.00">8 成蕙琳 1</text>
</g>
<!-- 9 -->
<g id="node10" class="node"><title>9</title>
<ellipse fill="none" stroke="blue" cx="941.995" cy="-18" rx="51.9908" ry="18"/>
<text text-anchor="middle" x="941.995" y="-14.3" font-family="Times,serif" font-size="14.00">9 金正男 1</text>
</g>
<!-- 8&#45;&gt;9 -->
<g id="edge8" class="edge"><title>8&#45;&gt;9</title>
<path fill="none" stroke="black" d="M941.995,-71.6966C941.995,-63.9827 941.995,-54.7125 941.995,-46.1124"/>
<polygon fill="black" stroke="black" points="945.495,-46.1043 941.995,-36.1043 938.495,-46.1044 945.495,-46.1043"/>
</g>
<!-- 12 -->
</g>
</svg>
