<?xml version="1.0" encoding="UTF-8" standalone="no"?>
<!DOCTYPE svg PUBLIC "-//W3C//DTD SVG 1.1//EN"
 "http://www.w3.org/Graphics/SVG/1.1/DTD/svg11.dtd">
<!-- Generated by graphviz version 2.38.0 (20140413.2041)
 -->
<!-- Title: G Pages: 1 -->
<svg width="1088pt" height="260pt"
 viewBox="0.00 0.00 1087.54 260.00" xmlns="http://www.w3.org/2000/svg" xmlns:xlink="http://www.w3.org/1999/xlink">
<g id="graph0" class="graph" transform="scale(1 1) rotate(0) translate(4 256)">
<title>G</title>
<polygon fill="white" stroke="none" points="-4,4 -4,-256 1083.54,-256 1083.54,4 -4,4"/>
<!-- 0 -->
<g id="node1" class="node"><title>0</title>
<ellipse fill="none" stroke="red" cx="421.995" cy="-234" rx="38.1938" ry="18"/>
<text text-anchor="middle" x="421.995" y="-230.3" font-family="Times,serif" font-size="14.00">0 root 1</text>
</g>
<!-- 2 -->
<g id="node3" class="node"><title>2</title>
<ellipse fill="none" stroke="blue" cx="421.995" cy="-162" rx="51.9908" ry="18"/>
<text text-anchor="middle" x="421.995" y="-158.3" font-family="Times,serif" font-size="14.00">2 金日成 4</text>
</g>
<!-- 0&#45;&gt;2 -->
<g id="edge1" class="edge"><title>0&#45;&gt;2</title>
<path fill="none" stroke="black" d="M421.995,-215.697C421.995,-207.983 421.995,-198.712 421.995,-190.112"/>
<polygon fill="black" stroke="black" points="425.495,-190.104 421.995,-180.104 418.495,-190.104 425.495,-190.104"/>
</g>
<!-- 1 -->
<!-- 3 -->
<g id="node4" class="node"><title>3</title>
<ellipse fill="none" stroke="blue" cx="295.995" cy="-90" rx="51.9908" ry="18"/>
<text text-anchor="middle" x="295.995" y="-86.3" font-family="Times,serif" font-size="14.00">3 金正日 6</text>
</g>
<!-- 2&#45;&gt;3 -->
<g id="edge2" class="edge"><title>2&#45;&gt;3</title>
<path fill="none" stroke="black" d="M395.582,-146.326C376.933,-135.965 351.74,-121.969 331.359,-110.646"/>
<polygon fill="black" stroke="black" points="332.816,-107.452 322.374,-105.655 329.416,-113.571 332.816,-107.452"/>
</g>
<!-- 10 -->
<g id="node11" class="node"><title>10</title>
<ellipse fill="none" stroke="red" cx="421.995" cy="-90" rx="55.7903" ry="18"/>
<text text-anchor="middle" x="421.995" y="-86.3" font-family="Times,serif" font-size="14.00">10 金敬姬 1</text>
</g>
<!-- 2&#45;&gt;10 -->
<g id="edge3" class="edge"><title>2&#45;&gt;10</title>
<path fill="none" stroke="black" d="M421.995,-143.697C421.995,-135.983 421.995,-126.712 421.995,-118.112"/>
<polygon fill="black" stroke="black" points="425.495,-118.104 421.995,-108.104 418.495,-118.104 425.495,-118.104"/>
</g>
<!-- 11 -->
<g id="node12" class="node"><title>11</title>
<ellipse fill="none" stroke="blue" cx="551.995" cy="-90" rx="56.59" ry="18"/>
<text text-anchor="middle" x="551.995" y="-86.3" font-family="Times,serif" font-size="14.00">11 张成泽 1</text>
</g>
<!-- 2&#45;&gt;11 -->
<g id="edge4" class="edge"><title>2&#45;&gt;11</title>
<path fill="none" stroke="black" d="M448.931,-146.496C468.107,-136.17 494.108,-122.17 515.196,-110.815"/>
<polygon fill="black" stroke="black" points="517.051,-113.791 524.197,-105.968 513.733,-107.628 517.051,-113.791"/>
</g>
<!-- 5 -->
<g id="node6" class="node"><title>5</title>
<ellipse fill="none" stroke="blue" cx="51.9954" cy="-18" rx="51.9908" ry="18"/>
<text text-anchor="middle" x="51.9954" y="-14.3" font-family="Times,serif" font-size="14.00">5 金正恩 1</text>
</g>
<!-- 3&#45;&gt;5 -->
<g id="edge6" class="edge"><title>3&#45;&gt;5</title>
<path fill="none" stroke="black" d="M257.333,-77.9083C214.893,-65.7329 146.68,-46.1635 100.638,-32.9549"/>
<polygon fill="black" stroke="black" points="101.458,-29.5489 90.8802,-30.1555 99.5273,-36.2775 101.458,-29.5489"/>
</g>
<!-- 6 -->
<g id="node7" class="node"><title>6</title>
<ellipse fill="none" stroke="red" cx="173.995" cy="-18" rx="51.9908" ry="18"/>
<text text-anchor="middle" x="173.995" y="-14.3" font-family="Times,serif" font-size="14.00">6 李雪主 1</text>
</g>
<!-- 3&#45;&gt;6 -->
<g id="edge7" class="edge"><title>3&#45;&gt;6</title>
<path fill="none" stroke="black" d="M270.42,-74.3257C252.485,-64.035 228.297,-50.1568 208.634,-38.8748"/>
<polygon fill="black" stroke="black" points="210.373,-35.837 199.957,-33.8961 206.889,-41.9086 210.373,-35.837"/>
</g>
<!-- 9 -->
<g id="node10" class="node"><title>9</title>
<ellipse fill="none" stroke="blue" cx="295.995" cy="-18" rx="51.9908" ry="18"/>
<text text-anchor="middle" x="295.995" y="-14.3" font-family="Times,serif" font-size="14.00">9 金正男 1</text>
</g>
<!-- 3&#45;&gt;9 -->
<g id="edge9" class="edge"><title>3&#45;&gt;9</title>
<path fill="none" stroke="black" d="M295.995,-71.6966C295.995,-63.9827 295.995,-54.7125 295.995,-46.1124"/>
<polygon fill="black" stroke="black" points="299.495,-46.1043 295.995,-36.1043 292.495,-46.1044 299.495,-46.1043"/>
</g>
<!-- 13 -->
<g id="node14" class="node"><title>13</title>
<ellipse fill="none" stroke="blue" cx="422.995" cy="-18" rx="56.59" ry="18"/>
<text text-anchor="middle" x="422.995" y="-14.3" font-family="Times,serif" font-size="14.00">13 金正哲 1</text>
</g>
<!-- 3&#45;&gt;13 -->
<g id="edge5" class="edge"><title>3&#45;&gt;13</title>
<path fill="none" stroke="black" d="M322.619,-74.3257C341.289,-64.035 366.468,-50.1568 386.937,-38.8748"/>
<polygon fill="black" stroke="black" points="388.901,-41.7885 395.97,-33.8961 385.522,-35.658 388.901,-41.7885"/>
</g>
<!-- 14 -->
<g id="node15" class="node"><title>14</title>
<ellipse fill="none" stroke="red" cx="553.995" cy="-18" rx="56.59" ry="18"/>
<text text-anchor="middle" x="553.995" y="-14.3" font-family="Times,serif" font-size="14.00">14 金与正 1</text>
</g>
<!-- 3&#45;&gt;14 -->
<g id="edge8" class="edge"><title>3&#45;&gt;14</title>
<path fill="none" stroke="black" d="M335.031,-78.0651C342.327,-76.0372 349.891,-73.9456 356.995,-72 406.279,-58.5034 462.582,-43.3861 502.34,-32.7614"/>
<polygon fill="black" stroke="black" points="503.319,-36.1227 512.077,-30.1607 501.513,-29.3597 503.319,-36.1227"/>
</g>
<!-- 4 -->
<!-- 7 -->
<!-- 8 -->
<!-- 12 -->
</g>
</svg>
